<?xml version="1.0" standalone="no"?><!DOCTYPE svg PUBLIC "-//W3C//DTD SVG 1.1//EN" "http://www.w3.org/Graphics/SVG/1.1/DTD/svg11.dtd"><svg t="1776350670994" class="icon" viewBox="0 0 1024 1024" version="1.1" xmlns="http://www.w3.org/2000/svg" p-id="2301" xmlns:xlink="http://www.w3.org/1999/xlink" width="200" height="200"><path d="M656.2 909.7c-57.5 23-114.1 27.5-124.8 28.1 43.6-2.2 85.8-11.8 124.8-28.1zM529.5 937.9zM844.6 511.9c8 24.8 16.3 61.5 17.4 98.7-0.3-34-6.2-67.3-17.4-98.7zM776.6 401c2.3 2.6 18.7 21.4 34.8 44.1-10.2-15.4-21.8-30.2-34.8-44.1zM713.9 878.9c16.4-10.8 31.9-23 46.4-36.5 5.4-5.1 10.6-10.3 15.7-15.6-12.5 12.3-29.3 26.9-51.7 44.3-3.4 2.8-6.9 5.4-10.4 7.8zM273.6 851.6c65 56.1 149.1 86.7 238.4 86.7 5.9 0 11.7-0.1 17.5-0.4 326.5-156.8 170-598.6 170-598.6-55.5-32.8-120-50.4-187.5-50.4-93.9 0-182.1 34.1-248.3 95.9-65.6 61.3-101.8 142.7-101.8 229 0 38.6 7.2 76.4 21.1 111.7 0.7 1.8 1 3.7 1 5.5 0 3-0.9 5.8-2.5 8.2 5.9 12.7 12.7 25 20.3 36.8 4.4 0.5 8.4 2.9 10.9 6.6 2.6 3.9 5.3 7.8 8 11.6 2.6 3.6 3.3 7.8 2.6 11.6 12.2 15.1 25.7 29.1 40.4 42.1h0.1c3.6 0.1 7.1 1.4 9.8 3.7z m23.6-248.1l-31.3-31.3 29.3-29.3 31.3 31.3-29.3 29.3z m86.5-223.1l31.3 31.4-29.2 29.2-31.3-31.4 29.2-29.2z m1.8 105.2l-29.2 29.3-31.3-31.3 29.3-29.3 31.2 31.3zM295.1 410l31.3 31.3-29.2 29.3-31.3-31.3 29.2-29.3z m-42.2 134.4l-31.3-31.3 29.3-29.3 31.3 31.3-29.3 29.3z" fill="#FE951D" p-id="2302"></path><path d="M445.4 187.3c-24.5-17.9-52.5-28.1-76.6-28.1-2 0-4 0.1-5.9 0.2-0.2 0-0.5 0-0.8 0.4-0.3 0.4-0.2 0.7-0.2 0.9 0.2 0.7 0.3 1.4 0.5 2.1 19.2 22.5 70.8 79.4 116.7 95.3 3.8 0.5 7.6 0.7 11.2 0.7 2 0 4-0.1 5.9-0.2 0.2 0 0.5 0 0.8-0.4 0.3-0.4 0.2-0.7 0.2-0.9-5.8-24.4-25.2-50.6-51.8-70z" fill="#B4E84B" p-id="2303"></path><path d="M546.6 260.3c-18-55.6-13.9-97.8-7.4-123.4 7.1-27.5 18.5-42.4 18.8-42.8 5.2-6.4 4.1-15.8-2.3-21-6.4-5.2-15.9-4.2-21.1 2.2-1.9 2.3-37.3 47.4-30.2 129-10.7-14.9-24.6-29-41.4-41.2-33.8-24.6-71.4-35.9-102.4-33.6-19.1 1.5-32.3 19.6-27.8 38.2 7.3 30.3 29.6 62.6 63.4 87.2 7.5 5.5 15.3 10.3 23.1 14.5C254.2 308 131.9 447.7 131.9 613.8c0 43 8.2 84.3 23.2 122.6 2.3 5.8 7.8 9.6 14 9.6 5.3 0 9.8-2.7 12.5-6.7 1.6-2.4 2.5-5.3 2.5-8.2 0-1.8-0.3-3.7-1-5.5-13.9-35.3-21.1-73.1-21.1-111.7 0-86.4 36.1-167.8 101.8-229C330 323.1 418.2 289 512.1 289c67.5 0 132 17.6 187.6 50.4 34.6 13.3 76.8 61.4 76.8 61.4l0.3 0.3c13 13.9 24.6 28.6 34.8 44.1 15.8 22.2 31.3 48.3 33.2 66.7 11.2 31.5 17.1 64.7 17.4 98.7 0.5 16.5-0.4 33.2-3.4 49-3.4 54-40.3 111.5-43.5 116.7-2.3 3.7-6.9 19.1-39.2 50.6-5 5.3-10.2 10.6-15.7 15.6-14.5 13.5-30 25.7-46.4 36.5-18.2 12.8-38 22.8-57.7 30.7-39 16.4-81.1 26-124.8 28.1-1 0.1-1.6 0.1-1.8 0.1-5.8 0.3-11.7 0.4-17.5 0.4-89.3 0-173.4-30.6-238.4-86.7-2.7-2.3-6.2-3.6-9.7-3.6h-0.1c-13.8 0.1-20.2 17.3-9.8 26.3 67.8 58.4 158.4 94.3 258 94.3 209.9 0 380.1-159 380.1-354.8-0.2-185.1-152-337.2-345.7-353.5z m-49.5-2.1c-0.3 0.4-0.6 0.4-0.8 0.4-1.9 0.2-3.9 0.2-5.9 0.2-3.7 0-7.4-0.2-11.2-0.7-21.3-2.6-44.6-12.3-65.4-27.4-25.9-18.8-44.9-44.1-51.3-67.9-0.2-0.7-0.4-1.4-0.5-2.1-0.1-0.2-0.1-0.5 0.2-0.9 0.3-0.4 0.6-0.4 0.8-0.4 1.9-0.1 3.9-0.2 5.9-0.2 24.1 0 52.1 10.3 76.6 28.1 26.6 19.4 46 45.5 51.9 70-0.1 0.2 0 0.5-0.3 0.9z" fill="" p-id="2304"></path><path d="M220.8 794.3c-2.8-3.8-5.4-7.7-8-11.6-2.5-3.8-6.5-6.2-10.9-6.6-0.5-0.1-1.1-0.1-1.6-0.1-8.8 0-15 7.2-15 15 0 2.8 0.8 5.6 2.5 8.2 2.8 4.3 5.7 8.5 8.8 12.7 2.8 3.9 7.3 6.2 12.1 6.2 7.7 0 13.4-5.5 14.7-12.1 0.7-3.9 0-8.1-2.6-11.7zM415.1 411.8l-31.4-31.4-29.2 29.3 31.3 31.3zM356.3 514.9l29.2-29.3-31.3-31.3-29.3 29.2zM326.4 441.3L295.1 410l-29.3 29.2 31.4 31.4zM250.8 483.8l-29.3 29.3 31.4 31.3 29.2-29.2zM265.8 572.2l31.4 31.3 29.2-29.2-31.3-31.4z" fill="" p-id="2305"></path><path d="M529.5 937.9c0.2 0 0.8 0 1.8-0.1 10.8-0.7 67.3-5.2 124.8-28.1 19.7-7.9 39.6-17.9 57.7-30.7 3.5-2.5 7-5.1 10.4-7.8 22.4-17.4 39.1-32.1 51.7-44.3 32.3-31.5 36.9-46.9 39.2-50.6 3.1-5.1 40.1-62.6 43.5-116.7 3-15.8 3.9-32.4 3.4-49-1.1-37.2-9.4-73.9-17.4-98.7-2-18.5-17.5-44.5-33.2-66.7-16.1-22.7-32.4-41.5-34.8-44.1l-0.3-0.3s-42.2-48.1-76.8-61.4c0.1-0.1 156.6 441.7-170 598.5zM529.5 937.9z" fill="#E27A13" p-id="2306"></path></svg>